<?xml version="1.0" encoding="UTF-8"?>
<svg xmlns="http://www.w3.org/2000/svg" viewBox="0 0 403.76 403.76">
  <g id="uuid-0124ca57-26a6-4823-9f99-4040154ca060" data-name="Layer 2">
    <rect width="403.76" height="403.76" rx="79.19" ry="79.19" fill="#210909"/>
  </g>
  <g id="uuid-75b7c526-5d5f-416d-be02-661fac0e3041" data-name="Layer 1">
    <g>
      <g>
        <path d="M78.97,22.42h245.83c31.21,0,56.55,25.34,56.55,56.55v245.82c0,31.21-25.34,56.55-56.55,56.55H78.97c-31.21,0-56.55-25.34-56.55-56.55V78.97c0-31.21,25.34-56.55,56.55-56.55Z" fill="#210909"/>
        <path d="M324.79,31.92c25.94,0,47.05,21.1,47.05,47.05v245.82c0,25.94-21.1,47.05-47.05,47.05H78.97c-25.94,0-47.05-21.1-47.05-47.05V78.97c0-25.94,21.1-47.05,47.05-47.05h245.82M324.79,12.92H78.97C42.49,12.92,12.92,42.49,12.92,78.97v245.82c0,36.48,29.57,66.05,66.05,66.05h245.82c36.48,0,66.05-29.57,66.05-66.05V78.97c0-36.48-29.57-66.05-66.05-66.05h0Z" fill="#f15a29"/>
      </g>
      <path d="M209.22,94.62c9.55,4.81,18.27,10.55,25.45,17.23,14.39,13.4,25.54,29.58,33,47.5,5-4.1,8.16-9.82,8.86-16.51,1.06-10.18-3.49-20.44-12.26-28.49-15.72-11.25-34.6-18.35-55.05-19.73ZM184.61,95.75c-26.44,4.28-49.65,18.2-65.9,38.06,15.37-6.17,34.94-3.05,54.25,8.99,30.74,19.16,55.06,32.05,83.68,22.23-6.79-16.67-17.08-31.7-30.4-44.1-12.32-11.46-26.46-19.95-41.63-25.18ZM286.35,135.48c.48,2.45.81,5.07.93,7.95.45,11.44-4.87,23.14-15.22,28,2.89,9.28,4.83,18.93,5.78,28.83,12.32-4.39,22.47-9.53,30.16-15.06-2.87-18.58-10.53-35.57-21.65-49.72ZM130.99,140.76c-3.56-.06-6.93.38-10.05,1.37-5.64,1.8-9.79,4.38-13.51,8.46-8.25,15.21-12.94,32.63-12.94,51.15,0,.58.04,1.15.05,1.73,23.3,6.92,52.8,11.31,86.72,11.31s61.53-4.12,84.47-10.66c-.71-9.42-2.37-18.61-5-27.43-36.53,12.54-67.17-6.46-94.32-23.39-12.35-7.7-24.73-12.37-35.41-12.55ZM309.2,199.01c-8.6,5.27-18.93,9.97-30.71,13.94.07,9.59-.85,18.97-2.62,28.04,9.42.51,15.96,5.3,20.57,11.67,8.18-15.16,12.83-32.5,12.83-50.92,0-.92-.05-1.82-.07-2.73ZM95.51,216.43c3.47,25.35,15.76,47.87,33.7,64.37,22.16,9.74,40.25,3.49,63.47-9.73,17.55-9.99,39.19-22.28,70.24-28.65,1.89-8.29,2.94-16.89,3.14-25.7-24.27,6.62-53.29,10.44-84.81,10.44s-61.28-3.95-85.74-10.74ZM272.86,253.41c-5,17.06-14.48,32.72-26.87,46.24,17.96-8.1,33.28-20.98,44.35-37.03-3.97-5.34-9.59-9.6-17.47-9.21ZM259.02,255.97c-25.66,6.21-43.9,16.59-60.22,25.88-10.53,5.99-24.1,17.44-44.85,16,14.43,7.21,30.7,11.29,47.92,11.29,8.31,0,16.39-.98,24.16-2.77,14.74-13.53,26.16-30.84,32.98-50.4Z" fill="#f7941d"/>
    </g>
  </g>
</svg>