<?xml version="1.0" encoding="UTF-8"?>
<svg xmlns="http://www.w3.org/2000/svg" viewBox="0 0 2119.75 2119.75">
  <defs>
    <style>
      .uuid-31e2342b-c94b-4b88-bccc-54569cf71f41 {
        fill: aqua;
      }

      .uuid-eb83f6e9-5e3a-4daf-ac52-c0cd9c00a035 {
        fill: #0a71ff;
      }

      .uuid-e73c2319-ae4e-46c9-9a57-5cfb50bb123b {
        fill: #000086;
      }
    </style>
  </defs>
  <g id="uuid-8f620e6f-3b56-41ea-82f4-440fbcf065ab" data-name="Layer_5">
    <circle class="uuid-e73c2319-ae4e-46c9-9a57-5cfb50bb123b" cx="1074.88" cy="1074.88" r="1044.88"/>
  </g>
  <g id="uuid-c361aa7d-bbac-4da8-8279-6ec63af85489" data-name="Layer_1">
    <g>
      <polygon class="uuid-31e2342b-c94b-4b88-bccc-54569cf71f41" points="808.14 950.71 811.48 943.64 815.39 936.22 819.32 929.25 823.26 922.25 823.26 921.83 685.78 814.41 837.23 900.86 837.43 901.01 845.07 891.25 853.36 881.21 853.36 880.77 647.36 674.22 642.13 674.22 636.88 673.35 631.65 671.6 627.29 668.99 622.94 665.5 619.43 661.57 616.81 656.76 615.07 651.96 613.75 646.73 613.75 641.05 614.62 635.8 616.39 630.99 619.43 626.19 622.94 622.28 626.85 618.77 631.65 615.7 636.46 613.96 641.69 613.09 647.36 613.09 652.59 614.41 657.4 616.15 662.2 618.77 666.14 622.28 669.62 626.63 672.24 630.99 673.98 636.25 674.85 641.47 674.85 646.73 880.88 853.25 881.1 853.52 890.91 845.41 900.95 837.54 900.95 837.12 814.97 685.15 921.89 823.12 922.09 823.47 928.89 819.64 935.86 815.7 943.28 811.77 950.7 808.28 950.7 807.41 895.72 641.92 973.83 798.25 973.95 798.62 981.25 796.05 989.12 793.44 996.96 791.25 1005.25 789.06 1005.25 788.63 983.44 615.28 1029.71 783.83 1029.71 784.28 1042.36 782.51 1055 781.21 1055.45 780.77 1055.45 489.09 1055.45 488.64 1051.52 485.15 1048.48 480.79 1046.29 475.99 1044.55 470.73 1044.1 465.5 1044.55 459.83 1045.84 455.02 1048.03 449.79 1051.1 445.41 1055 441.92 1059.39 438.44 1064.19 436.25 1069.42 434.93 1074.65 434.5 1079.9 434.93 1085.13 436.25 1089.94 438.44 1094.3 441.92 1098.23 445.41 1101.27 449.79 1103.46 455.02 1104.78 459.83 1105.2 465.5 1104.78 470.73 1103.04 475.99 1100.85 480.79 1097.78 485.15 1093.85 488.64 1094.3 489.09 1094.3 780.77 1094.3 781.21 1106.95 782.51 1119.62 784.28 1120.04 783.83 1166.31 615.28 1144.5 788.63 1144.37 789.13 1152.34 791.25 1160.21 793.44 1168.05 796.05 1175.47 798.67 1175.92 798.25 1254.03 641.92 1199.05 807.41 1198.6 808.28 1206.02 811.77 1213.44 815.7 1220.44 819.64 1227.41 823.57 1227.86 823.12 1334.78 685.15 1248.8 837.12 1248.43 837.59 1258.41 845.41 1268.45 853.7 1268.87 853.25 1474.9 646.73 1474.9 641.47 1475.77 636.25 1477.51 630.99 1480.13 626.63 1483.61 622.28 1487.55 618.77 1492.35 616.15 1497.16 614.41 1502.39 613.09 1508.06 613.09 1513.29 613.96 1518.1 615.7 1522.9 618.77 1526.81 622.28 1530.32 626.19 1533.36 630.99 1535.13 635.8 1536 641.05 1536 646.73 1534.68 651.96 1532.94 656.76 1530.32 661.57 1526.81 665.5 1522.46 668.99 1518.1 671.6 1512.87 673.35 1507.62 674.22 1502.39 674.22 1296.39 880.77 1295.94 881.21 1304.23 891.25 1312.1 901.28 1312.52 900.86 1463.97 814.41 1326.49 921.83 1326.07 922.25 1329.98 929.25 1333.91 936.22 1337.85 943.64 1341.23 950.88 1341.78 950.64 1507.19 895.61 1351.37 973.77 1350.94 974.22 1353.56 981.64 1356.17 989.5 1358.36 997.35 1360.46 1005.37 1360.98 1005.22 1533.81 983.38 1365.78 1029.67 1365.34 1030.12 1367.08 1042.77 1368.4 1055.44 1659.96 1055.44 1660.38 1055.86 1663.86 1051.93 1668.25 1048.89 1673.03 1046.7 1678.28 1044.96 1683.51 1044.51 1689.19 1044.96 1693.99 1046.28 1699.22 1048.44 1703.58 1051.51 1707.09 1055.44 1710.58 1059.8 1712.77 1064.6 1714.06 1069.86 1714.51 1075.09 1714.06 1080.32 1712.77 1085.57 1710.58 1090.38 1707.09 1094.73 1703.58 1098.67 1699.22 1101.73 1693.99 1103.9 1689.19 1105.22 1683.51 1105.66 1678.28 1105.22 1673.03 1103.47 1668.25 1101.28 1663.86 1098.22 1660.38 1094.31 1659.96 1094.31 1368.4 1094.31 1368.4 1094.73 1367.08 1107.41 1365.34 1120.06 1365.78 1120.06 1533.81 1166.35 1360.98 1144.51 1360.53 1144.51 1358.36 1152.8 1356.17 1160.67 1353.56 1168.54 1350.99 1175.83 1351.37 1175.96 1507.19 1254.12 1341.78 1199.09 1341.33 1199.09 1337.85 1206.51 1333.91 1213.96 1329.98 1220.93 1326.17 1227.75 1326.49 1227.92 1463.97 1335.34 1312.52 1248.89 1312.1 1248.89 1304.23 1258.92 1296.11 1268.74 1296.39 1268.96 1502.39 1475.51 1507.62 1475.51 1512.87 1476.38 1518.1 1478.12 1522.46 1480.74 1526.81 1484.25 1530.32 1488.18 1532.94 1492.96 1534.68 1497.77 1536 1503.02 1536 1508.7 1535.13 1513.93 1533.36 1518.73 1530.32 1523.54 1526.81 1527.47 1522.9 1530.96 1518.1 1534.02 1513.29 1535.77 1508.06 1536.64 1502.39 1536.64 1497.16 1535.34 1492.35 1533.57 1487.55 1530.96 1483.61 1527.47 1480.13 1523.09 1477.51 1518.73 1475.77 1513.5 1474.9 1508.25 1474.9 1503.02 1268.87 1296.47 1268.45 1296.47 1258.41 1304.77 1248.63 1312.41 1248.8 1312.63 1334.78 1464.6 1227.86 1326.6 1227.41 1326.6 1220.44 1330.54 1213.44 1334.47 1206.02 1338.41 1198.8 1341.79 1199.05 1342.32 1254.03 1507.83 1175.92 1351.5 1175.47 1351.5 1168.05 1354.12 1160.21 1356.73 1152.34 1358.92 1144.47 1360.99 1144.5 1361.09 1166.31 1534.45 1120.04 1365.9 1119.62 1365.9 1106.95 1367.64 1094.3 1368.96 1094.3 1660.66 1093.9 1661.11 1097.78 1664.57 1100.85 1668.96 1103.04 1673.76 1104.78 1678.99 1105.2 1684.22 1104.78 1689.9 1103.46 1694.7 1101.27 1699.96 1098.23 1704.31 1094.3 1707.8 1089.94 1711.31 1085.13 1713.48 1079.9 1714.8 1074.65 1715.25 1069.42 1714.8 1064.19 1713.48 1059.39 1711.31 1055 1707.8 1051.1 1704.31 1048.03 1699.96 1045.84 1694.7 1044.55 1689.9 1044.1 1684.22 1044.55 1678.99 1046.29 1673.76 1048.48 1668.96 1051.52 1664.57 1055.45 1661.09 1055.45 1660.66 1055.45 1368.96 1055 1368.96 1042.36 1367.64 1029.71 1365.9 983.44 1534.45 1005.25 1361.09 996.96 1358.92 989.12 1356.73 981.25 1354.12 973.83 1351.5 895.72 1507.83 950.7 1342.32 950.7 1341.89 943.28 1338.41 935.86 1334.47 928.89 1330.54 921.89 1326.6 814.97 1464.6 900.95 1312.63 890.91 1304.77 880.88 1296.47 674.85 1503.02 674.85 1508.25 673.98 1513.5 672.24 1518.73 669.62 1523.09 666.14 1527.47 662.2 1530.96 657.4 1533.57 652.59 1535.34 647.36 1536.64 641.69 1536.64 636.46 1535.77 631.65 1534.02 626.85 1530.96 622.94 1527.47 619.43 1523.54 616.39 1518.73 614.62 1513.93 613.75 1508.7 613.75 1503.02 615.07 1497.77 616.81 1492.96 619.43 1488.18 622.94 1484.25 627.29 1480.74 631.65 1478.12 636.88 1476.38 642.13 1475.51 647.36 1475.51 853.36 1268.96 845.07 1258.92 837.23 1248.89 685.78 1335.34 823.26 1227.92 819.32 1220.93 815.39 1213.96 811.48 1206.51 807.97 1199.09 642.56 1254.12 798.38 1175.96 795.77 1168.54 793.15 1160.67 790.96 1152.8 788.77 1144.51 615.94 1166.35 783.97 1120.06 782.22 1107.41 780.93 1094.73 780.93 1094.31 489.79 1094.31 489.37 1094.31 485.89 1098.22 481.5 1101.28 476.72 1103.47 471.47 1105.22 466.24 1105.66 460.56 1105.22 455.76 1103.9 450.53 1101.73 446.17 1098.67 442.66 1094.73 439.17 1090.38 436.98 1085.57 435.69 1080.32 435.24 1075.09 435.69 1069.86 436.98 1064.6 439.17 1059.8 442.66 1055.44 446.17 1051.51 450.53 1048.44 455.76 1046.28 460.56 1044.96 466.24 1044.51 471.47 1044.96 476.72 1046.7 481.5 1048.89 485.89 1051.93 489.37 1055.86 489.79 1055.44 780.93 1055.44 782.22 1042.77 783.97 1030.12 783.97 1029.67 615.94 983.38 788.77 1005.22 788.87 1005.24 790.96 997.35 793.15 989.5 795.77 981.64 798.38 974.22 798.38 973.77 642.56 895.61 807.97 950.64 808.14 950.71"/>
      <polygon class="uuid-31e2342b-c94b-4b88-bccc-54569cf71f41" points="1653.41 840.6 1654.28 845.83 1653.83 851.08 1652.96 856.31 1650.79 861.57 1647.73 865.92 1644.24 869.86 1639.86 872.92 1635.08 875.54 1629.83 877.28 1624.6 877.7 1619.34 877.28 1614.11 875.96 1609.31 874.22 1608.88 874.66 1558.26 895.61 1555.2 899.12 1551.71 901.73 1547.78 903.92 1543.42 905.22 1539.04 905.67 1534.23 905.22 1529.88 903.92 1525.94 901.73 1522.46 898.67 1519.84 895.18 1517.65 891.25 1516.36 886.89 1515.91 882.51 1516.36 878.15 1517.65 873.79 1519.84 869.86 1522.46 866.35 1525.94 863.31 1529.88 861.12 1534.23 859.8 1538.62 859.38 1542.97 859.8 1543.42 859.38 1594.04 838.41 1594.47 838.41 1596.21 833.6 1599.27 828.8 1602.76 824.86 1607.14 821.38 1611.92 819.21 1616.73 817.44 1621.98 816.57 1627.66 817.02 1632.89 817.89 1637.69 820.08 1642.05 822.7 1646.41 826.63 1649.47 830.54 1652.09 835.35 1653.41 840.6"/>
      <polygon class="uuid-31e2342b-c94b-4b88-bccc-54569cf71f41" points="1558.06 1254.29 1558.26 1254.12 1608.88 1275.09 1609.31 1275.51 1614.11 1273.77 1619.34 1272.45 1624.6 1272.02 1629.83 1272.45 1635.08 1274.21 1639.86 1276.83 1644.24 1279.89 1647.73 1283.8 1650.79 1288.18 1652.96 1293.41 1653.83 1298.67 1654.28 1303.89 1653.41 1309.15 1652.09 1314.38 1649.47 1319.18 1646.41 1323.12 1642.05 1327.05 1637.69 1329.67 1632.89 1331.83 1627.66 1332.73 1621.98 1333.15 1616.73 1332.28 1611.92 1330.54 1607.14 1328.35 1602.76 1324.86 1599.27 1320.93 1596.21 1316.12 1594.47 1311.31 1594.04 1311.31 1543.42 1290.35 1542.97 1290.35 1538.62 1290.8 1534.23 1290.35 1529.88 1289.05 1525.94 1286.86 1522.46 1283.8 1519.84 1280.31 1517.65 1276.38 1516.36 1272.02 1515.91 1267.66 1516.36 1263.28 1517.65 1258.92 1519.84 1254.99 1522.46 1251.5 1525.94 1248.44 1529.88 1246.25 1534.23 1244.96 1539.04 1244.51 1543.42 1244.96 1547.78 1246.25 1551.71 1248.44 1555.2 1251.06 1558.06 1254.29"/>
      <polygon class="uuid-31e2342b-c94b-4b88-bccc-54569cf71f41" points="1604.53 968.99 1604.95 972.47 1604.53 975.96 1603.21 979.44 1601.02 982.51 1598.4 985.12 1594.92 986.89 1591.43 987.76 1587.92 987.76 1584.43 986.89 1580.95 985.12 1578.33 982.51 1576.14 979.44 1574.85 975.96 1574.4 972.47 1574.85 968.99 1576.14 965.48 1578.33 962.44 1580.95 959.8 1584.43 958.06 1587.92 957.18 1591.43 957.18 1594.92 958.06 1598.4 959.8 1601.02 962.44 1603.21 965.48 1604.53 968.99"/>
      <polygon class="uuid-31e2342b-c94b-4b88-bccc-54569cf71f41" points="1604.53 1173.77 1604.95 1177.28 1604.53 1180.76 1603.21 1184.25 1601.02 1187.31 1598.4 1189.93 1594.92 1191.67 1591.43 1192.54 1587.92 1192.54 1584.43 1191.67 1580.95 1189.93 1578.33 1187.31 1576.14 1184.25 1574.85 1180.76 1574.4 1177.28 1574.85 1173.77 1576.14 1170.28 1578.33 1167.22 1580.95 1164.6 1584.43 1162.86 1587.92 1161.99 1591.43 1161.99 1594.92 1162.86 1598.4 1164.6 1601.02 1167.22 1603.21 1170.28 1604.53 1173.77"/>
      <polygon class="uuid-31e2342b-c94b-4b88-bccc-54569cf71f41" points="1526.39 779.47 1526.81 782.96 1526.39 786.44 1525.07 789.95 1522.9 792.99 1520.29 795.63 1516.78 797.37 1513.29 798.25 1509.81 798.25 1506.32 797.37 1502.81 795.63 1500.2 792.99 1498.03 789.95 1496.71 786.44 1496.29 782.96 1496.71 779.47 1498.03 775.96 1500.2 772.92 1502.81 770.28 1506.32 768.54 1509.81 767.67 1513.29 767.67 1516.78 768.54 1520.29 770.28 1522.9 772.92 1525.07 775.96 1526.39 779.47"/>
      <polygon class="uuid-31e2342b-c94b-4b88-bccc-54569cf71f41" points="1526.39 1363.28 1526.81 1366.77 1526.39 1370.28 1525.07 1373.76 1522.9 1376.83 1520.29 1379.44 1516.78 1381.18 1513.29 1382.06 1509.81 1382.06 1506.32 1381.18 1502.81 1379.44 1500.2 1376.83 1498.03 1373.76 1496.71 1370.28 1496.29 1366.77 1496.71 1363.28 1498.03 1359.8 1500.2 1356.73 1502.81 1354.12 1506.32 1352.38 1509.81 1351.5 1513.29 1351.5 1516.78 1352.38 1520.29 1354.12 1522.9 1356.73 1525.07 1359.8 1526.39 1363.28"/>
      <polygon class="uuid-31e2342b-c94b-4b88-bccc-54569cf71f41" points="1396.76 632.31 1397.21 637.99 1396.76 643.67 1395.02 648.89 1392.83 654.15 1389.34 658.51 1384.98 662.44 1380.18 665.5 1374.95 667.25 1369.27 668.54 1364.02 668.54 1358.36 667.25 1353.11 665.5 1348.3 662.44 1343.95 658.51 1340.46 654.15 1338.27 648.89 1336.53 643.67 1336.1 637.99 1336.53 632.31 1338.27 627.06 1340.46 621.83 1343.95 617.47 1348.3 613.54 1353.11 610.47 1358.36 608.73 1364.02 607.41 1369.27 607.41 1374.95 608.73 1380.18 610.47 1384.98 613.54 1389.34 617.47 1392.83 621.83 1395.02 627.06 1396.76 632.31"/>
      <polygon class="uuid-31e2342b-c94b-4b88-bccc-54569cf71f41" points="1396.76 1506.08 1397.21 1511.76 1396.76 1517.44 1395.02 1522.67 1392.83 1527.9 1389.34 1532.28 1384.98 1536.21 1380.18 1539.25 1374.95 1540.99 1369.27 1542.31 1364.02 1542.31 1358.36 1540.99 1353.11 1539.25 1348.3 1536.21 1343.95 1532.28 1340.46 1527.9 1338.27 1522.67 1336.53 1517.44 1336.1 1511.76 1336.53 1506.08 1338.27 1500.83 1340.46 1495.6 1343.95 1491.22 1348.3 1487.31 1353.11 1484.25 1358.36 1482.5 1364.02 1481.18 1369.27 1481.18 1374.95 1482.5 1380.18 1484.25 1384.98 1487.31 1389.34 1491.22 1392.83 1495.6 1395.02 1500.83 1396.76 1506.08"/>
      <polygon class="uuid-31e2342b-c94b-4b88-bccc-54569cf71f41" points="1192.06 555.89 1192.5 559.38 1192.06 562.89 1190.76 566.38 1188.57 569.44 1185.95 572.05 1182.47 573.8 1178.96 574.67 1175.47 574.67 1171.99 573.8 1168.5 572.05 1165.89 569.44 1163.69 566.38 1162.37 562.89 1161.95 559.38 1162.37 555.89 1163.69 552.41 1165.89 549.34 1168.5 546.73 1171.99 544.99 1175.47 544.09 1178.96 544.09 1182.47 544.99 1185.95 546.73 1188.57 549.34 1190.76 552.41 1192.06 555.89"/>
      <polygon class="uuid-31e2342b-c94b-4b88-bccc-54569cf71f41" points="1192.06 1586.86 1192.5 1590.35 1192.06 1593.83 1190.76 1597.34 1188.57 1600.38 1185.95 1603.02 1182.47 1604.76 1178.96 1605.64 1175.47 1605.64 1171.99 1604.76 1168.5 1603.02 1165.89 1600.38 1163.69 1597.34 1162.37 1593.83 1161.95 1590.35 1162.37 1586.86 1163.69 1583.37 1165.89 1580.31 1168.5 1577.7 1171.99 1575.93 1175.47 1575.06 1178.96 1575.06 1182.47 1575.93 1185.95 1577.7 1188.57 1580.31 1190.76 1583.37 1192.06 1586.86"/>
      <polygon class="uuid-31e2342b-c94b-4b88-bccc-54569cf71f41" points="987.38 555.89 987.8 559.38 987.38 562.89 986.06 566.38 983.86 569.44 981.25 572.05 977.76 573.8 974.28 574.67 970.79 574.67 967.28 573.8 963.8 572.05 961.18 569.44 958.99 566.38 957.69 562.89 957.25 559.38 957.69 555.89 958.99 552.41 961.18 549.34 963.8 546.73 967.28 544.99 970.79 544.09 974.28 544.09 977.76 544.99 981.25 546.73 983.86 549.34 986.06 552.41 987.38 555.89"/>
      <polygon class="uuid-31e2342b-c94b-4b88-bccc-54569cf71f41" points="987.38 1586.86 987.8 1590.35 987.38 1593.83 986.06 1597.34 983.86 1600.38 981.25 1603.02 977.76 1604.76 974.28 1605.64 970.79 1605.64 967.28 1604.76 963.8 1603.02 961.18 1600.38 958.99 1597.34 957.69 1593.83 957.25 1590.35 957.69 1586.86 958.99 1583.37 961.18 1580.31 963.8 1577.7 967.28 1575.93 970.79 1575.06 974.28 1575.06 977.76 1575.93 981.25 1577.7 983.86 1580.31 986.06 1583.37 987.38 1586.86"/>
      <polygon class="uuid-31e2342b-c94b-4b88-bccc-54569cf71f41" points="813.22 632.31 813.65 637.99 813.22 643.67 811.48 648.89 809.29 654.15 805.8 658.51 801.45 662.44 796.64 665.5 791.39 667.25 785.73 668.54 780.48 668.54 774.8 667.25 769.57 665.5 764.77 662.44 760.41 658.51 756.92 654.15 754.73 648.89 752.99 643.67 752.54 637.99 752.99 632.31 754.73 627.06 756.92 621.83 760.41 617.47 764.77 613.54 769.57 610.47 774.8 608.73 780.48 607.41 785.73 607.41 791.39 608.73 796.64 610.47 801.45 613.54 805.8 617.47 809.29 621.83 811.48 627.06 813.22 632.31"/>
      <polygon class="uuid-31e2342b-c94b-4b88-bccc-54569cf71f41" points="813.22 1506.08 813.65 1511.76 813.22 1517.44 811.48 1522.67 809.29 1527.9 805.8 1532.28 801.45 1536.21 796.64 1539.25 791.39 1540.99 785.73 1542.31 780.48 1542.31 774.8 1540.99 769.57 1539.25 764.77 1536.21 760.41 1532.28 756.92 1527.9 754.73 1522.67 752.99 1517.44 752.54 1511.76 752.99 1506.08 754.73 1500.83 756.92 1495.6 760.41 1491.22 764.77 1487.31 769.57 1484.25 774.8 1482.5 780.48 1481.18 785.73 1481.18 791.39 1482.5 796.64 1484.25 801.45 1487.31 805.8 1491.22 809.29 1495.6 811.48 1500.83 813.22 1506.08"/>
      <polygon class="uuid-31e2342b-c94b-4b88-bccc-54569cf71f41" points="653.04 779.47 653.46 782.96 653.04 786.44 651.72 789.95 649.55 792.99 646.94 795.63 643.43 797.37 639.94 798.25 636.46 798.25 632.97 797.37 629.46 795.63 626.85 792.99 624.68 789.95 623.36 786.44 622.94 782.96 623.36 779.47 624.68 775.96 626.85 772.92 629.46 770.28 632.97 768.54 636.46 767.67 639.94 767.67 643.43 768.54 646.94 770.28 649.55 772.92 651.72 775.96 653.04 779.47"/>
      <polygon class="uuid-31e2342b-c94b-4b88-bccc-54569cf71f41" points="653.04 1363.28 653.46 1366.77 653.04 1370.28 651.72 1373.76 649.55 1376.83 646.94 1379.44 643.43 1381.18 639.94 1382.06 636.46 1382.06 632.97 1381.18 629.46 1379.44 626.85 1376.83 624.68 1373.76 623.36 1370.28 622.94 1366.77 623.36 1363.28 624.68 1359.8 626.85 1356.73 629.46 1354.12 632.97 1352.38 636.46 1351.5 639.94 1351.5 643.43 1352.38 646.94 1354.12 649.55 1356.73 651.72 1359.8 653.04 1363.28"/>
      <polygon class="uuid-31e2342b-c94b-4b88-bccc-54569cf71f41" points="633.39 878.15 633.84 882.51 633.39 886.89 632.1 891.25 629.91 895.18 627.29 898.67 623.81 901.73 619.87 903.92 615.52 905.22 610.71 905.67 606.33 905.22 601.97 903.92 598.04 901.73 594.55 899.12 591.49 895.61 540.87 874.66 540.44 874.22 535.64 875.96 530.41 877.28 525.15 877.7 519.92 877.28 514.7 875.54 509.89 872.92 505.51 869.86 502.02 865.92 498.96 861.57 496.79 856.31 495.92 851.08 495.47 845.83 496.34 840.6 497.66 835.35 500.28 830.54 503.34 826.63 507.7 822.7 512.06 820.08 516.86 817.89 522.12 817.02 527.77 816.57 533.02 817.44 537.83 819.21 542.61 821.38 546.99 824.86 550.48 828.8 553.54 833.6 555.28 838.41 555.71 838.41 606.33 859.38 606.78 859.8 611.13 859.38 615.52 859.8 619.87 861.12 623.81 863.31 627.29 866.35 629.91 869.86 632.1 873.79 633.39 878.15"/>
      <polygon class="uuid-31e2342b-c94b-4b88-bccc-54569cf71f41" points="591.69 1254.29 594.55 1251.06 598.04 1248.44 601.97 1246.25 606.33 1244.96 610.71 1244.51 615.52 1244.96 619.87 1246.25 623.81 1248.44 627.29 1251.5 629.91 1254.99 632.1 1258.92 633.39 1263.28 633.84 1267.66 633.39 1272.02 632.1 1276.38 629.91 1280.31 627.29 1283.8 623.81 1286.86 619.87 1289.05 615.52 1290.35 611.13 1290.8 606.78 1290.35 606.33 1290.35 555.71 1311.31 555.28 1311.31 553.54 1316.12 550.48 1320.93 546.99 1324.86 542.61 1328.35 537.83 1330.54 533.02 1332.28 527.77 1333.15 522.12 1332.73 516.86 1331.83 512.06 1329.67 507.7 1327.05 503.34 1323.12 500.28 1319.18 497.66 1314.38 496.34 1309.15 495.47 1303.89 495.92 1298.67 496.79 1293.41 498.96 1288.18 502.02 1283.8 505.51 1279.89 509.89 1276.83 514.7 1274.21 519.92 1272.45 525.15 1272.02 530.41 1272.45 535.64 1273.77 540.44 1275.51 540.87 1275.09 591.49 1254.12 591.69 1254.29"/>
      <polygon class="uuid-31e2342b-c94b-4b88-bccc-54569cf71f41" points="574.9 968.99 575.35 972.47 574.9 975.96 573.61 979.44 571.42 982.51 568.8 985.12 565.32 986.89 561.83 987.76 558.32 987.76 554.83 986.89 551.35 985.12 548.73 982.51 546.54 979.44 545.22 975.96 544.8 972.47 545.22 968.99 546.54 965.48 548.73 962.44 551.35 959.8 554.83 958.06 558.32 957.18 561.83 957.18 565.32 958.06 568.8 959.8 571.42 962.44 573.61 965.48 574.9 968.99"/>
      <polygon class="uuid-31e2342b-c94b-4b88-bccc-54569cf71f41" points="574.9 1173.77 575.35 1177.28 574.9 1180.76 573.61 1184.25 571.42 1187.31 568.8 1189.93 565.32 1191.67 561.83 1192.54 558.32 1192.54 554.83 1191.67 551.35 1189.93 548.73 1187.31 546.54 1184.25 545.22 1180.76 544.8 1177.28 545.22 1173.77 546.54 1170.28 548.73 1167.22 551.35 1164.6 554.83 1162.86 558.32 1161.99 561.83 1161.99 565.32 1162.86 568.8 1164.6 571.42 1167.22 573.61 1170.28 574.9 1173.77"/>
    </g>
  </g>
  <g id="uuid-024e5538-07c9-4bea-a40f-796cf9c726a3" data-name="Layer_2">
    <g>
      <polygon class="uuid-eb83f6e9-5e3a-4daf-ac52-c0cd9c00a035" points="569.01 622.94 569.01 623.36 551.98 643.01 535.85 663.1 520.56 684.07 506.17 705.46 492.65 727.72 479.55 750 467.75 773.13 456.84 796.71 446.38 820.3 437.19 844.75 428.9 869.2 421.48 894.1 415.38 918.97 409.7 944.32 405.35 970.07 401.86 995.39 399.25 1021.17 397.5 1046.94 397.48 1046.94 304.55 1046.94 305.82 1020.29 308.46 993.23 311.5 966.58 315.88 939.94 321.11 913.75 327.21 887.1 334.21 861.36 342.05 835.58 350.79 809.81 360.82 784.94 371.31 760.04 382.64 735.58 394.86 711.56 407.96 688 421.93 664.84 436.77 642.13 452.03 620.3 468.19 598.48 485.23 577.94 503.1 557.42 503.3 557.22 569.01 622.94"/>
      <polygon class="uuid-eb83f6e9-5e3a-4daf-ac52-c0cd9c00a035" points="1843.91 1020.29 1845.2 1046.94 1752.7 1046.94 1752.22 1046.96 1750.5 1021.17 1747.89 995.39 1744.4 970.07 1740.02 944.32 1734.34 918.97 1728.24 894.1 1720.82 869.2 1712.53 844.75 1703.37 820.3 1692.89 796.71 1681.98 773.13 1670.2 750 1657.1 727.72 1643.58 705.46 1629.17 684.07 1613.9 663.1 1597.74 643.01 1580.71 623.36 1581.16 622.94 1646.62 557.45 1664.52 577.94 1681.53 598.48 1697.69 620.3 1712.98 642.13 1727.8 664.84 1741.76 688 1754.86 711.56 1767.09 735.58 1778.44 760.04 1788.9 784.94 1798.96 809.81 1807.68 835.58 1815.54 861.36 1822.52 887.1 1828.62 913.75 1833.87 939.94 1838.23 966.58 1841.29 993.23 1843.91 1020.29"/>
      <polygon class="uuid-eb83f6e9-5e3a-4daf-ac52-c0cd9c00a035" points="1844.78 1115.49 1842.59 1142.13 1839.97 1168.75 1836.04 1195.39 1831.68 1222.04 1826 1248.23 1819.45 1274 1812.03 1299.75 1803.74 1325.07 1795.03 1350.42 1784.99 1375.3 1774.06 1399.75 1762.28 1423.78 1749.63 1447.36 1736.54 1470.94 1722.14 1493.65 1707.3 1515.91 1691.59 1537.3 1675.43 1558.69 1658.4 1579.23 1640.52 1599.3 1575.06 1533.36 1574.81 1533.14 1591.64 1514.16 1607.78 1494.07 1623.49 1473.55 1637.91 1452.59 1651.88 1430.75 1664.95 1408.91 1677.17 1386.23 1688.53 1363.07 1699.01 1339.49 1708.6 1315.91 1717.34 1291.46 1724.76 1267.01 1731.73 1242.55 1737.41 1217.23 1742.64 1192.33 1746.57 1166.58 1749.63 1141.26 1751.38 1115.49 1751.82 1115.49 1844.78 1115.49"/>
      <polygon class="uuid-eb83f6e9-5e3a-4daf-ac52-c0cd9c00a035" points="1598.61 508.97 1533.15 574.01 1532.7 574.46 1513.5 557.42 1492.99 540.84 1472.47 525.1 1451.1 510.26 1428.84 496.29 1406.58 483.2 1383.45 470.97 1360.32 459.17 1336.31 448.68 1312.31 439.1 1287.41 430.78 1262.54 422.94 1237.66 415.94 1212.36 410.26 1186.59 405.46 1160.84 401.97 1135.1 398.91 1109.32 397.19 1109.35 396.74 1109.35 304.19 1135.97 305.91 1163.03 308.52 1189.65 312.03 1216.72 316.39 1242.91 322.07 1269.53 328.17 1295.28 335.59 1321.47 343.9 1346.77 353.07 1372.1 363.1 1396.97 373.59 1420.98 385.39 1444.98 398.04 1468.56 411.58 1491.69 426 1514.38 440.84 1536.21 456.55 1557.58 473.16 1578.54 490.62 1598.61 508.97"/>
      <polygon class="uuid-eb83f6e9-5e3a-4daf-ac52-c0cd9c00a035" points="1040.82 1752.58 1040.82 1845.59 1014.21 1844.27 987.59 1841.65 961.39 1838.17 935.2 1833.81 909.03 1828.55 882.83 1822.01 857.51 1815.01 831.76 1807.17 806.89 1798.43 782.01 1788.81 757.56 1777.91 733.56 1766.55 710 1754.33 686.87 1741.65 663.74 1727.68 641.47 1712.84 620.09 1697.55 598.7 1681.39 578.18 1664.81 558.11 1647.33 623.82 1581.59 643.22 1598 663.29 1613.72 683.8 1629 704.75 1643.42 726.58 1656.94 748.4 1669.62 771.1 1681.39 794.24 1692.75 817.79 1702.81 841.37 1711.97 865.38 1720.26 889.8 1727.68 914.68 1734.23 939.55 1739.91 964.46 1744.29 989.75 1748.2 1015.08 1750.84 1040.82 1752.58"/>
      <polygon class="uuid-eb83f6e9-5e3a-4daf-ac52-c0cd9c00a035" points="1040.82 396.74 1040.82 397.17 1014.63 398.91 988.88 401.97 963.14 405.46 937.39 410.26 912.06 415.94 887.19 422.94 862.31 430.78 837.44 439.1 813.44 448.68 789.43 459.17 766.3 470.97 743.17 483.2 720.91 496.29 698.65 510.26 677.26 525.1 656.74 540.84 636.22 557.42 617.25 574.26 617.02 574.01 551.34 508.74 571.21 490.62 592.15 473.16 613.54 456.55 635.35 440.84 658.06 426 681.19 411.58 704.75 398.04 728.75 385.39 752.75 373.59 777.65 363.1 802.95 353.07 828.28 343.9 854.45 335.59 880.22 328.17 906.84 322.07 933.03 316.39 960.07 312.03 986.72 308.52 1013.76 305.91 1040.82 304.16 1040.82 396.74"/>
      <polygon class="uuid-eb83f6e9-5e3a-4daf-ac52-c0cd9c00a035" points="558.11 1514.16 575.12 1533.36 509.65 1599.3 509.23 1599.3 491.33 1579.23 474.29 1558.69 458.16 1537.3 442.45 1515.91 427.61 1493.65 413.19 1470.94 400.12 1447.36 387.44 1423.78 375.66 1399.75 364.76 1375.3 354.72 1350.42 345.98 1325.07 337.69 1299.75 330.27 1274 323.72 1248.23 318.05 1222.04 313.69 1195.39 309.75 1168.75 307.14 1142.13 304.95 1115.49 305.4 1115.49 398.35 1115.49 400.12 1141.26 403.15 1166.58 407.09 1192.33 412.32 1217.23 418 1242.55 424.99 1267.01 432.41 1291.46 441.13 1315.91 450.74 1339.49 461.22 1363.07 472.55 1386.23 484.78 1408.91 497.87 1430.75 511.84 1452.59 526.24 1473.55 541.95 1494.07 558.11 1514.16"/>
      <polygon class="uuid-eb83f6e9-5e3a-4daf-ac52-c0cd9c00a035" points="1526.15 1581.4 1591.87 1647.13 1591.64 1647.33 1571.55 1664.81 1551.05 1681.39 1529.66 1697.55 1508.28 1712.84 1486.01 1727.68 1462.88 1741.65 1439.75 1754.33 1416.17 1766.55 1392.17 1777.91 1367.74 1788.81 1342.86 1798.43 1317.96 1807.17 1292.22 1815.01 1266.92 1822.01 1240.72 1828.55 1214.53 1833.81 1188.36 1838.17 1162.16 1841.65 1135.54 1844.27 1109.35 1845.56 1109.35 1752.58 1109.35 1752.56 1134.67 1750.84 1159.97 1748.2 1185.29 1744.29 1210.17 1739.91 1235.05 1734.23 1259.92 1727.68 1284.37 1720.26 1308.38 1711.97 1331.93 1702.81 1355.51 1692.75 1378.65 1681.39 1401.33 1669.62 1423.17 1656.94 1444.98 1643.42 1465.95 1629 1486.44 1613.72 1506.53 1598 1526.15 1581.4"/>
    </g>
  </g>
  <g id="uuid-2d8684f0-f937-4cc6-af11-d2ca5bfa0095" data-name="Layer_3">
    <path class="uuid-eb83f6e9-5e3a-4daf-ac52-c0cd9c00a035" d="M2023.29,1043l.45,31.87-.45,31.87-1.74,31.45-2.61,31.87-3.49,31.45-4.81,31.42-6.13,31-6.55,31-7.84,31.03-9.16,30.55-9.61,30.13-10.91,29.71-12.23,29.26-12.65,29.26-13.97,28.36-14.84,28.39-15.26,27.51-17.03,27.07-17.46,26.64-18.33,25.77-19.22,25.32-20.07,24.45-20.94,24-21.39,23.16-22.71,22.26-23.13,21.84-23.56,20.97-24.88,20.09-24.88,19.2-26.2,18.35-26.2,17.46-27.04,16.61-27.51,15.71-28.36,14.84-28.36,13.97-28.81,12.67-29.68,12.23-29.68,10.91-30.13,9.61-30.55,9.16-30.55,7.87-30.98,6.55-31,6.13-31.42,4.78-31.42,3.51-31.85,2.61-31.42,1.74-31.87.45-31.85-.45-31.42-1.74-31.87-2.61-31.42-3.51-31.42-4.78-30.98-6.13-31-6.55-30.55-7.87-30.55-9.16-30.1-9.61-29.68-10.91-29.68-12.23-28.81-12.67-28.36-13.97-28.39-14.84-27.49-15.71-27.07-16.61-26.17-17.46-26.2-18.35-24.88-19.2-24.88-20.09-23.58-20.97-23.13-21.84-22.68-22.26-21.39-23.16-20.97-24-20.07-24.45-19.2-25.32-18.33-25.77-17.46-26.64-17.03-27.07-15.29-27.51-14.84-28.39-13.94-28.36-12.67-29.26-12.23-29.26-10.91-29.71-9.59-30.13-9.16-30.55-7.87-31.03-6.55-31-6.1-31-4.81-31.42-3.49-31.45-2.64-31.87-1.74-31.45-.42-31.87.42-31.87,1.74-31.45,2.64-31.87,3.49-31.45,4.81-31.42,6.1-31,6.55-31,7.87-31.03,9.16-30.55,9.59-30.13,10.91-29.71,12.23-29.26,12.67-29.26,13.94-28.36,14.84-28.39,15.29-27.51,17.03-27.07,17.46-26.64,18.33-25.77,19.2-25.32,20.07-24.45,20.97-24,21.39-23.16,22.68-22.26,23.13-21.84,23.58-20.97,24.88-20.09,24.88-19.2,26.2-18.35,26.17-17.46,27.07-16.61,27.49-15.71,28.39-14.84,28.36-13.97,28.81-12.67,29.68-12.23,29.68-10.91,30.1-9.61,30.55-9.16,30.55-7.87,31-6.55,30.98-6.13,31.42-4.78,31.42-3.51,31.87-2.61,31.42-1.74,31.85-.45,31.87.45,31.42,1.74,31.85,2.61,31.42,3.51,31.42,4.78,31,6.13,30.98,6.55,30.55,7.87,30.55,9.16,30.13,9.61,29.68,10.91,29.68,12.23,28.81,12.67,28.36,13.97,28.36,14.84,27.51,15.71,27.04,16.61,26.2,17.46,26.2,18.35,24.88,19.2,24.88,20.09,23.56,20.97,23.13,21.84,22.71,22.26,21.39,23.16,20.94,24,20.07,24.45,19.22,25.32,18.33,25.77,17.46,26.64,17.03,27.07,15.26,27.51,14.84,28.39,13.97,28.36,12.65,29.26,12.23,29.26,10.91,29.71,9.61,30.13,9.16,30.55,7.84,31.03,6.55,31,6.13,31,4.81,31.42,3.49,31.45,2.61,31.87,1.74,31.45ZM1940.79,1068.33l-.42-30.13-1.74-30.13-2.64-30.13-3.49-30.13-4.81-30.13-5.65-29.71-7-29.26-7.84-29.26-8.74-28.81-10.03-28.81-10.48-28.39-12.23-27.51-12.65-27.51-13.52-27.07-14.84-26.64-15.29-25.77-16.58-25.32-17.46-24.88-18.33-24.03-18.77-23.58-20.07-22.71-20.52-22.26-21.39-21.39-21.81-20.54-23.13-20.07-23.58-18.77-24-18.35-24.88-17.46-25.32-16.16-25.75-15.71-26.62-14.87-26.62-13.52-27.49-12.67-27.94-11.78-27.94-10.93-28.81-10.03-28.81-8.74-29.23-7.87-29.68-6.97-29.26-5.68-30.1-4.81-30.1-3.49-30.13-2.64-30.1-1.74-30.13-.42-30.1.42-30.13,1.74-30.1,2.64-30.13,3.49-30.1,4.81-29.23,5.68-29.68,6.97-29.26,7.87-28.81,8.74-28.78,10.03-27.94,10.93-27.94,11.78-27.49,12.67-26.64,13.52-26.62,14.87-25.75,15.71-25.32,16.16-24.88,17.46-24,18.35-23.56,18.77-23.13,20.07-21.84,20.54-21.39,21.39-20.49,22.26-20.09,22.71-18.75,23.58-18.35,24.03-17.46,24.88-16.58,25.32-15.26,25.77-14.84,26.64-13.55,27.07-12.65,27.51-12.23,27.51-10.46,28.39-10.06,28.81-8.72,28.81-7.87,29.26-6.97,29.26-5.68,29.71-4.81,30.13-3.49,30.13-2.61,30.13-1.74,30.13-.45,30.13.45,30.13,1.74,30.13,2.61,30.13,3.49,30.13,4.81,30.13,5.68,29.71,6.97,29.26,7.87,29.23,8.72,28.83,10.06,28.81,10.46,28.39,12.23,27.51,12.65,27.51,13.55,27.07,14.84,26.64,15.26,25.75,16.58,25.35,17.46,24.88,18.35,24.03,18.75,23.58,20.09,22.71,20.49,22.26,21.39,21.39,21.84,20.52,23.13,20.09,23.56,18.77,24,18.35,24.88,17.46,25.32,16.16,25.75,15.71,26.62,14.87,26.64,13.52,27.49,12.67,27.94,11.78,27.94,10.93,28.78,10.03,28.81,8.74,29.26,7.84,29.68,7,29.23,5.68,30.1,4.81,30.13,3.49,30.1,2.61,30.13,1.77,30.1.42,30.13-.42,30.1-1.77,30.13-2.61,30.1-3.49,30.1-4.81,29.26-5.68,29.68-7,29.23-7.84,28.81-8.74,28.81-10.03,27.94-10.93,27.94-11.78,27.49-12.67,26.62-13.52,26.62-14.87,25.75-15.71,25.32-16.16,24.88-17.46,24-18.35,23.58-18.77,23.13-20.09,21.81-20.52,21.39-21.39,20.52-22.26,20.07-22.71,18.77-23.58,18.33-24.03,17.46-24.88,16.58-25.35,15.29-25.75,14.84-26.64,13.52-27.07,12.65-27.51,12.23-27.51,10.48-28.39,10.03-28.81,8.74-28.83,7.84-29.23,7-29.26,5.65-29.71,4.81-30.13,3.49-30.13,2.64-30.13,1.74-30.13.42-30.13Z"/>
  </g>
</svg>